<?xml version="1.0" encoding="utf-8"?>
<!DOCTYPE svg PUBLIC "-//W3C//DTD SVG 1.1//EN" "http://www.w3.org/Graphics/SVG/1.1/DTD/svg11.dtd">
<svg version="1.1" id="Logo" xmlns="http://www.w3.org/2000/svg" xmlns:xlink="http://www.w3.org/1999/xlink" x="0px" y="0px" width="360px" height="360px" viewBox="0 -1.75 360 360" enable-background="new 0 -1.75 360 360" xml:space="preserve" fill="#333333">
	<g>
		<path d="M179.993,30.981c47.966,0,53.643,0.185,72.588,1.048c17.513,0.798,27.024,3.722,33.357,6.182
			c8.385,3.259,14.367,7.152,20.656,13.434c6.289,6.289,10.183,12.271,13.435,20.657c2.46,6.332,5.383,15.844,6.182,33.356
			c0.862,18.938,1.049,24.622,1.049,72.588c0,47.966-0.187,53.643-1.049,72.588c-0.799,17.513-3.722,27.024-6.182,33.356
			c-3.26,8.386-7.152,14.367-13.435,20.656c-6.289,6.289-12.271,10.183-20.656,13.436c-6.333,2.46-15.845,5.383-33.357,6.182
			c-18.938,0.861-24.622,1.048-72.588,1.048c-47.967,0-53.65-0.187-72.588-1.048c-17.512-0.799-27.024-3.722-33.357-6.182
			c-8.385-3.261-14.368-7.152-20.657-13.436c-6.29-6.289-10.183-12.271-13.434-20.656c-2.46-6.332-5.384-15.844-6.182-33.356
			c-0.863-18.938-1.049-24.622-1.049-72.588c0-47.967,0.186-53.643,1.049-72.588c0.798-17.512,3.722-27.024,6.182-33.356
			c3.258-8.386,7.152-14.368,13.434-20.657c6.289-6.29,12.271-10.183,20.657-13.434c6.333-2.46,15.845-5.384,33.357-6.182
			C126.35,31.166,132.026,30.981,179.993,30.981 M179.993-1.385c-48.788,0-54.905,0.207-74.065,1.084
			c-19.117,0.87-32.179,3.907-43.603,8.35C50.51,12.641,40.492,18.78,30.509,28.771c-9.982,9.982-16.128,20.001-20.721,31.809
			c-4.443,11.423-7.48,24.486-8.35,43.603c-0.871,19.16-1.078,25.277-1.078,74.064c0,48.786,0.207,54.905,1.084,74.064
			c0.87,19.117,3.907,32.18,8.35,43.603c4.592,11.816,10.731,21.835,20.721,31.817c9.989,9.989,20.001,16.129,31.816,20.721
			c11.423,4.442,24.485,7.48,43.603,8.35c19.159,0.878,25.278,1.084,74.064,1.084c48.787,0,54.904-0.206,74.064-1.084
			c19.117-0.869,32.18-3.907,43.604-8.35c11.814-4.592,21.833-10.731,31.815-20.721c9.99-9.99,16.129-20.001,20.722-31.817
			c4.442-11.423,7.479-24.485,8.35-43.603c0.877-19.159,1.084-25.278,1.084-74.064c0-48.787-0.207-54.905-1.084-74.064
			c-0.87-19.117-3.907-32.18-8.35-43.603c-4.593-11.815-10.731-21.833-20.722-31.816c-9.989-9.989-20.001-16.128-31.815-20.721
			c-11.424-4.442-24.486-7.48-43.604-8.35C234.897-1.178,228.779-1.385,179.993-1.385L179.993-1.385z"/>
		<path d="M179.993,86.007c-50.947,0-92.24,41.299-92.24,92.24s41.292,92.24,92.24,92.24s92.239-41.292,92.239-92.24
			S230.94,86.007,179.993,86.007z M179.993,238.121c-33.072,0-59.875-26.811-59.875-59.874c0-33.064,26.811-59.875,59.875-59.875
			c33.071,0,59.874,26.811,59.874,59.875C239.867,211.31,213.064,238.121,179.993,238.121z"/>
		<circle cx="275.884" cy="82.356" r="21.555"/>
	</g>
</svg>
